<svg width="750" height="449" viewBox="0 0 750 449" fill="none" xmlns="http://www.w3.org/2000/svg">
<path d="M101.702 448.602C94.3338 448.602 87.7035 446.895 81.8201 443.485C75.9366 440.067 71.3136 435.322 67.9467 429.247C64.5755 423.166 62.8921 416.123 62.8921 408.111V330.11C62.8921 325.534 61.8129 321.407 59.6547 317.734C57.4964 314.061 54.6259 311.165 51.0431 309.052C47.4604 306.93 43.5108 305.872 39.1942 305.872C34.8777 305.872 30.9194 306.93 27.3237 309.052C23.7237 311.165 20.8705 314.061 18.7554 317.734C16.6403 321.407 15.587 325.534 15.587 330.11V445.97H0V332.487C0 324.657 1.65324 317.699 4.96403 311.623C8.2705 305.543 12.8763 300.751 18.777 297.255C24.6734 293.754 31.4806 292 39.1942 292C46.8777 292 53.6676 293.754 59.5683 297.255C65.4647 300.751 70.0921 305.543 73.4417 311.623C76.7957 317.699 78.4748 324.657 78.4748 332.487V410.488C78.4748 415.159 79.5539 419.307 81.7122 422.937C83.8705 426.567 86.7021 429.441 90.2158 431.563C93.7251 433.676 97.5539 434.735 101.702 434.735C105.842 434.735 109.64 433.676 113.093 431.563C116.547 429.441 119.309 426.567 121.381 422.937C123.453 419.307 124.493 415.159 124.493 410.488V332.487C124.493 324.657 126.168 317.699 129.518 311.623C132.872 305.543 137.512 300.751 143.439 297.255C149.37 293.754 156.19 292 163.899 292C171.583 292 178.36 293.754 184.23 297.255C190.101 300.751 194.693 305.543 198 311.623C201.311 317.699 202.964 324.657 202.964 332.487V445.97H187.386V330.11C187.386 325.534 186.341 321.407 184.256 317.734C182.167 314.061 179.352 311.165 175.813 309.052C172.273 306.93 168.302 305.872 163.899 305.872C159.496 305.872 155.482 306.93 151.856 309.052C148.23 311.165 145.36 314.061 143.24 317.734C141.129 321.407 140.072 325.534 140.072 330.11V408.111C140.072 416.123 138.414 423.166 135.108 429.247C131.797 435.322 127.26 440.067 121.489 443.485C115.722 446.895 109.122 448.602 101.702 448.602ZM283.036 445.97C271.208 445.97 260.633 443.775 251.309 439.38C241.985 434.99 234.639 428.676 229.269 420.453C223.903 412.225 221.223 402.363 221.223 390.873C221.223 380.242 223.381 370.562 227.698 361.833C232.014 353.104 238.079 346.147 245.888 340.961C253.701 335.775 262.878 333.183 273.414 333.183C284.231 333.183 293.378 335.559 300.863 340.313C308.344 345.066 314.011 351.479 317.866 359.543C321.725 367.611 323.655 376.669 323.655 386.72C323.655 388.25 323.603 389.857 323.503 391.543C323.404 393.228 323.21 394.745 322.925 396.097H237.194C237.656 404.105 239.983 410.859 244.17 416.347C248.352 421.835 253.774 425.962 260.434 428.732C267.099 431.498 274.347 432.877 282.173 432.877H309.975V445.97H283.036ZM237.108 385.169H308.331C308.387 382.347 308.141 379.184 307.593 375.688C307.049 372.187 306.021 368.7 304.511 365.23C303 361.755 300.906 358.571 298.234 355.675C295.558 352.78 292.161 350.434 288.043 348.631C283.929 346.834 278.948 345.931 273.108 345.931C267.526 345.931 262.532 347.076 258.129 349.366C253.726 351.656 249.984 354.699 246.906 358.501C243.824 362.309 241.463 366.531 239.823 371.172C238.187 375.809 237.28 380.471 237.108 385.169ZM342.302 445.97V381.884C342.302 371.772 344.551 363.078 349.053 355.801C353.56 348.528 359.624 342.919 367.252 338.978C374.875 335.028 383.309 333.053 392.551 333.053C401.926 333.053 410.395 335.028 417.949 338.978C425.503 342.919 431.529 348.528 436.031 355.801C440.538 363.078 442.791 371.772 442.791 381.884V445.97H427.731V382.399C427.731 374.737 426.065 368.207 422.736 362.806C419.413 357.404 415.057 353.277 409.662 350.429C404.266 347.573 398.516 346.147 392.421 346.147C386.404 346.147 380.719 347.551 375.362 350.36C370.014 353.169 365.676 357.274 362.352 362.676C359.029 368.078 357.371 374.65 357.371 382.399V445.97H342.302ZM504.781 445.97C494.995 445.97 487.334 443.161 481.795 437.544C476.253 431.926 473.486 424.294 473.486 414.64V308.119H488.547V412.998C488.547 419.277 490.178 424.165 493.441 427.652C496.709 431.135 501.483 432.877 507.755 432.877H528.993V445.97H504.781ZM454.316 348.869V335.775H529.51V348.869H454.316ZM593.918 448.693C582.803 448.693 572.961 446.134 564.388 441.022C555.811 435.906 549.064 428.966 544.139 420.198C539.223 411.43 536.762 401.655 536.762 390.873C536.762 380.091 539.223 370.316 544.139 361.548C549.064 352.78 555.811 345.84 564.388 340.723C572.961 335.611 582.803 333.053 593.918 333.053C605.02 333.053 614.862 335.611 623.439 340.723C632.016 345.84 638.762 352.745 643.683 361.449C648.604 370.148 651.064 379.966 651.064 390.894C651.064 401.685 648.604 411.46 643.683 420.219C638.762 428.974 632.016 435.906 623.439 441.022C614.862 446.134 605.02 448.693 593.918 448.693ZM593.918 435.599C602.201 435.599 609.487 433.62 615.777 429.657C622.066 425.699 626.978 420.345 630.518 413.595C634.057 406.84 635.827 399.269 635.827 390.881C635.827 382.489 634.057 374.918 630.518 368.164C626.978 361.41 622.066 356.051 615.777 352.089C609.487 348.13 602.201 346.147 593.918 346.147C585.63 346.147 578.339 348.13 572.05 352.089C565.765 356.051 560.849 361.405 557.305 368.151C553.765 374.901 552 382.468 552 390.86C552 399.252 553.765 406.823 557.305 413.582C560.849 420.336 565.765 425.699 572.05 429.657C578.339 433.62 585.63 435.599 593.918 435.599ZM669.496 445.97V367.105C669.496 357.313 672.263 349.643 677.805 344.094C683.344 338.55 691.005 335.775 700.791 335.775H719.697V348.869H703.774C697.502 348.869 692.728 350.598 689.46 354.055C686.197 357.512 684.565 362.408 684.565 368.747V445.97H669.496ZM730.791 445.97V335.775H745.946V445.97H730.791ZM738.392 315.897C735.513 315.897 732.997 314.817 730.838 312.656C728.68 310.495 727.601 307.976 727.601 305.094C727.601 302.129 728.68 299.588 730.838 297.471C732.997 295.349 735.513 294.29 738.392 294.29C741.354 294.29 743.892 295.349 746.007 297.471C748.126 299.588 749.184 302.129 749.184 305.094C749.184 307.976 748.126 310.495 746.007 312.656C743.892 314.817 741.354 315.897 738.392 315.897Z" fill="white"/>
<path fill-rule="evenodd" clip-rule="evenodd" d="M265 0H354.03V12.5101C315.798 20.6943 285.694 50.7981 277.51 89.0301H265V0ZM275.301 63.461C286.221 40.1065 305.107 21.2215 328.461 10.301H275.301V63.461Z" fill="#F97316"/>
<path fill-rule="evenodd" clip-rule="evenodd" d="M265 130.234V220H354.03V207.49C315.553 199.253 285.309 168.815 277.356 130.234H265ZM328.461 209.699C305.107 198.779 286.221 179.893 275.301 156.539V209.699H328.461Z" fill="#F97316"/>
<path fill-rule="evenodd" clip-rule="evenodd" d="M472.644 130.234C464.64 169.061 434.061 199.64 395.234 207.644V220H485V130.234H472.644ZM474.699 156.539C463.779 179.893 444.893 198.779 421.539 209.699H474.699V156.539Z" fill="#F97316"/>
<path fill-rule="evenodd" clip-rule="evenodd" d="M485 89.0301V0H395.234V12.3556C433.815 20.3089 464.253 50.5531 472.49 89.0301H485ZM421.539 10.301C444.893 21.2215 463.779 40.1065 474.699 63.461V10.301H421.539Z" fill="#F97316"/>
<circle cx="374.632" cy="109.632" r="71.3712" fill="#F97316"/>
</svg>
