<svg width="1069" height="220" viewBox="0 0 1069 220" fill="none" xmlns="http://www.w3.org/2000/svg">
<path d="M420.702 188.602C413.334 188.602 406.704 186.895 400.82 183.485C394.937 180.067 390.314 175.322 386.947 169.247C383.576 163.166 381.892 156.123 381.892 148.111V70.1101C381.892 65.5338 380.813 61.4069 378.655 57.7337C376.496 54.0606 373.626 51.1653 370.043 49.0521C366.46 46.9303 362.511 45.8716 358.194 45.8716C353.878 45.8716 349.919 46.9303 346.324 49.0521C342.724 51.1653 339.87 54.0606 337.755 57.7337C335.64 61.4069 334.587 65.5338 334.587 70.1101V185.97H319V72.4869C319 64.6566 320.653 57.6992 323.964 51.6233C327.27 45.5431 331.876 40.7508 337.777 37.2548C343.673 33.7545 350.481 32 358.194 32C365.878 32 372.668 33.7545 378.568 37.2548C384.465 40.7508 389.092 45.5431 392.442 51.6233C395.796 57.6992 397.475 64.6566 397.475 72.4869V150.488C397.475 155.159 398.554 159.307 400.712 162.937C402.87 166.567 405.702 169.441 409.216 171.563C412.725 173.676 416.554 174.735 420.702 174.735C424.842 174.735 428.64 173.676 432.093 171.563C435.547 169.441 438.309 166.567 440.381 162.937C442.453 159.307 443.493 155.159 443.493 150.488V72.4869C443.493 64.6566 445.168 57.6992 448.518 51.6233C451.872 45.5431 456.512 40.7508 462.439 37.2548C468.37 33.7545 475.19 32 482.899 32C490.583 32 497.36 33.7545 503.23 37.2548C509.101 40.7508 513.693 45.5431 517 51.6233C520.311 57.6992 521.964 64.6566 521.964 72.4869V185.97H506.386V70.1101C506.386 65.5338 505.341 61.4069 503.256 57.7337C501.167 54.0606 498.352 51.1653 494.813 49.0521C491.273 46.9303 487.302 45.8716 482.899 45.8716C478.496 45.8716 474.482 46.9303 470.856 49.0521C467.23 51.1653 464.36 54.0606 462.24 57.7337C460.129 61.4069 459.072 65.5338 459.072 70.1101V148.111C459.072 156.123 457.414 163.166 454.108 169.247C450.797 175.322 446.26 180.067 440.489 183.485C434.722 186.895 428.122 188.602 420.702 188.602ZM602.036 185.97C590.208 185.97 579.633 183.775 570.309 179.38C560.985 174.99 553.639 168.676 548.269 160.453C542.903 152.225 540.223 142.363 540.223 130.873C540.223 120.242 542.381 110.562 546.698 101.833C551.014 93.1041 557.079 86.1467 564.888 80.9611C572.701 75.7754 581.878 73.1826 592.414 73.1826C603.231 73.1826 612.378 75.5594 619.863 80.3129C627.344 85.0664 633.011 91.4793 636.866 99.5429C640.725 107.611 642.655 116.669 642.655 126.72C642.655 128.25 642.603 129.857 642.503 131.543C642.404 133.228 642.21 134.745 641.925 136.097H556.194C556.656 144.105 558.983 150.859 563.17 156.347C567.352 161.835 572.774 165.962 579.434 168.732C586.099 171.498 593.347 172.877 601.173 172.877H628.975V185.97H602.036ZM556.108 125.169H627.331C627.387 122.347 627.141 119.184 626.593 115.688C626.049 112.187 625.021 108.7 623.511 105.23C622 101.755 619.906 98.5706 617.234 95.6753C614.558 92.78 611.161 90.4335 607.043 88.6315C602.929 86.8338 597.948 85.9306 592.108 85.9306C586.526 85.9306 581.532 87.0758 577.129 89.3661C572.726 91.6565 568.984 94.6987 565.906 98.5015C562.824 102.309 560.463 106.531 558.823 111.172C557.187 115.809 556.28 120.471 556.108 125.169ZM661.302 185.97V121.884C661.302 111.772 663.551 103.078 668.053 95.8006C672.56 88.5278 678.624 82.9186 686.252 78.9776C693.875 75.0278 702.309 73.053 711.551 73.053C720.926 73.053 729.395 75.0278 736.949 78.9776C744.503 82.9186 750.529 88.5278 755.031 95.8006C759.538 103.078 761.791 111.772 761.791 121.884V185.97H746.731V122.399C746.731 114.737 745.065 108.207 741.736 102.806C738.413 97.4039 734.057 93.277 728.662 90.4292C723.266 87.5728 717.516 86.1467 711.421 86.1467C705.404 86.1467 699.719 87.5512 694.362 90.36C689.014 93.1689 684.676 97.2742 681.352 102.676C678.029 108.078 676.371 114.65 676.371 122.399V185.97H661.302ZM823.781 185.97C813.995 185.97 806.334 183.161 800.795 177.544C795.253 171.926 792.486 164.294 792.486 154.64V48.1187H807.547V152.998C807.547 159.277 809.178 164.165 812.441 167.652C815.709 171.135 820.483 172.877 826.755 172.877H847.993V185.97H823.781ZM773.316 88.8692V75.7754H848.51V88.8692H773.316ZM912.918 188.693C901.803 188.693 891.961 186.134 883.388 181.022C874.811 175.906 868.064 168.966 863.139 160.198C858.223 151.43 855.762 141.655 855.762 130.873C855.762 120.091 858.223 110.316 863.139 101.548C868.064 92.78 874.811 85.8399 883.388 80.7234C891.961 75.6112 901.803 73.053 912.918 73.053C924.02 73.053 933.862 75.6112 942.439 80.7234C951.016 85.8399 957.762 92.7454 962.683 101.449C967.604 110.148 970.064 119.966 970.064 130.894C970.064 141.685 967.604 151.46 962.683 160.219C957.762 168.974 951.016 175.906 942.439 181.022C933.862 186.134 924.02 188.693 912.918 188.693ZM912.918 175.599C921.201 175.599 928.487 173.62 934.777 169.657C941.066 165.699 945.978 160.345 949.518 153.595C953.057 146.84 954.827 139.269 954.827 130.881C954.827 122.489 953.057 114.918 949.518 108.164C945.978 101.41 941.066 96.0513 934.777 92.0886C928.487 88.1302 921.201 86.1467 912.918 86.1467C904.63 86.1467 897.339 88.1302 891.05 92.0886C884.765 96.0513 879.849 101.405 876.305 108.151C872.765 114.901 871 122.468 871 130.86C871 139.252 872.765 146.823 876.305 153.582C879.849 160.336 884.765 165.699 891.05 169.657C897.339 173.62 904.63 175.599 912.918 175.599ZM988.496 185.97V107.105C988.496 97.3131 991.263 89.6427 996.805 84.0941C1002.34 78.5497 1010.01 75.7754 1019.79 75.7754H1038.7V88.8692H1022.77C1016.5 88.8692 1011.73 90.5977 1008.46 94.0548C1005.2 97.5119 1003.57 102.408 1003.57 108.747V185.97H988.496ZM1049.79 185.97V75.7754H1064.95V185.97H1049.79ZM1057.39 55.8971C1054.51 55.8971 1052 54.8168 1049.84 52.6561C1047.68 50.4954 1046.6 47.9761 1046.6 45.0937C1046.6 42.1293 1047.68 39.5883 1049.84 37.4708C1052 35.349 1054.51 34.2903 1057.39 34.2903C1060.35 34.2903 1062.89 35.349 1065.01 37.4708C1067.13 39.5883 1068.18 42.1293 1068.18 45.0937C1068.18 47.9761 1067.13 50.4954 1065.01 52.6561C1062.89 54.8168 1060.35 55.8971 1057.39 55.8971Z" fill="#333333"/>
<path fill-rule="evenodd" clip-rule="evenodd" d="M0 0H89.0301V12.5101C50.7981 20.6943 20.6943 50.7981 12.5101 89.0301H0V0ZM10.301 63.461C21.2215 40.1065 40.1065 21.2215 63.461 10.301H10.301V63.461Z" fill="#F97316"/>
<path fill-rule="evenodd" clip-rule="evenodd" d="M0 130.234V220H89.0301V207.49C50.5531 199.253 20.3089 168.815 12.3556 130.234H0ZM63.461 209.699C40.1065 198.779 21.2215 179.893 10.301 156.539V209.699H63.461Z" fill="#F97316"/>
<path fill-rule="evenodd" clip-rule="evenodd" d="M207.644 130.234C199.64 169.061 169.061 199.64 130.234 207.644V220H220V130.234H207.644ZM209.699 156.539C198.779 179.893 179.893 198.779 156.539 209.699H209.699V156.539Z" fill="#F97316"/>
<path fill-rule="evenodd" clip-rule="evenodd" d="M220 89.0301V0H130.234V12.3556C168.815 20.3089 199.253 50.5531 207.49 89.0301H220ZM156.539 10.301C179.893 21.2215 198.779 40.1065 209.699 63.461V10.301H156.539Z" fill="#F97316"/>
<circle cx="109.632" cy="109.632" r="71.3712" fill="#F97316"/>
</svg>
